<svg xmlns="http://www.w3.org/2000/svg" width="1600" height="1200" viewBox="0 0 1600 1200" role="img">
  <defs>
    <linearGradient id="wash" x1="0" y1="0" x2="0.8" y2="1">
      <stop offset="0%" stop-color="#17171B"/>
      <stop offset="100%" stop-color="#0B0B0D"/>
    </linearGradient>
    <pattern id="grid" width="80" height="80" patternUnits="userSpaceOnUse">
      <path d="M80 0H0V80" fill="none" stroke="rgba(255,255,255,0.035)" stroke-width="1"/>
    </pattern>
  </defs>
  <rect width="1600" height="1200" fill="url(#wash)"/>
  <rect x="0" y="40" width="320" height="1150" fill="rgba(242,240,235,0.058)"/><rect x="320" y="19" width="320" height="1175" fill="rgba(242,240,235,0.058)"/><rect x="640" y="28" width="320" height="1181" fill="rgba(198,255,63,0.10)"/><rect x="960" y="38" width="320" height="1175" fill="rgba(242,240,235,0.040)"/><rect x="1280" y="16" width="320" height="1180" fill="rgba(242,240,235,0.064)"/>
  <rect width="1600" height="1200" fill="url(#grid)"/>
  <path d="M204 0 L624 1200" stroke="rgba(255,255,255,0.05)" stroke-width="1" fill="none"/><path d="M1118 0 L1538 1200" stroke="rgba(255,255,255,0.05)" stroke-width="1" fill="none"/><path d="M1161 0 L1581 1200" stroke="rgba(255,255,255,0.05)" stroke-width="1" fill="none"/>
  
  <circle cx="528" cy="751" r="372" fill="none" stroke="rgba(198,255,63,0.22)" stroke-width="1.5"/>
  <circle cx="528" cy="751" r="231" fill="none" stroke="rgba(242,240,235,0.10)" stroke-width="1"/>
  <rect x="0" y="788" width="1600" height="412" fill="rgba(11,11,13,0.55)"/>
  <rect x="0" y="788" width="1600" height="1" fill="rgba(255,255,255,0.14)"/>
</svg>
