<svg xmlns="http://www.w3.org/2000/svg" width="1600" height="1200" viewBox="0 0 1600 1200" role="img">
  <defs>
    <linearGradient id="wash" x1="0" y1="0" x2="0.8" y2="1">
      <stop offset="0%" stop-color="#17171B"/>
      <stop offset="100%" stop-color="#0B0B0D"/>
    </linearGradient>
    <pattern id="grid" width="80" height="80" patternUnits="userSpaceOnUse">
      <path d="M80 0H0V80" fill="none" stroke="rgba(255,255,255,0.035)" stroke-width="1"/>
    </pattern>
  </defs>
  <rect width="1600" height="1200" fill="url(#wash)"/>
  <rect x="0" y="12" width="320" height="1187" fill="rgba(242,240,235,0.020)"/><rect x="320" y="60" width="320" height="1133" fill="rgba(242,240,235,0.026)"/><rect x="640" y="53" width="320" height="1152" fill="rgba(242,240,235,0.048)"/><rect x="960" y="85" width="320" height="1087" fill="rgba(198,255,63,0.10)"/><rect x="1280" y="48" width="320" height="1145" fill="rgba(242,240,235,0.031)"/>
  <rect width="1600" height="1200" fill="url(#grid)"/>
  <path d="M1140 0 L1560 1200" stroke="rgba(255,255,255,0.05)" stroke-width="1" fill="none"/><path d="M830 0 L1250 1200" stroke="rgba(255,255,255,0.05)" stroke-width="1" fill="none"/><path d="M1581 0 L2001 1200" stroke="rgba(255,255,255,0.05)" stroke-width="1" fill="none"/>
  
  <circle cx="809" cy="615" r="448" fill="none" stroke="rgba(198,255,63,0.22)" stroke-width="1.5"/>
  <circle cx="809" cy="615" r="278" fill="none" stroke="rgba(242,240,235,0.10)" stroke-width="1"/>
  <rect x="0" y="767" width="1600" height="433" fill="rgba(11,11,13,0.55)"/>
  <rect x="0" y="767" width="1600" height="1" fill="rgba(255,255,255,0.14)"/>
</svg>
